<svg width="1171" height="572" viewBox="0 0 1171 572" fill="none" xmlns="http://www.w3.org/2000/svg">
<path d="M38.8787 530.125C46.9574 536.822 48.0778 548.8 41.3812 556.879C34.6845 564.957 22.7066 566.078 14.6279 559.381C6.54913 552.685 5.42872 540.707 12.1254 532.628C18.822 524.549 30.7999 523.429 38.8787 530.125Z" fill="black"/>
<path d="M604.038 275.159C612.116 281.855 613.237 293.833 606.54 301.912C599.843 309.991 587.866 311.111 579.787 304.414C571.708 297.718 570.588 285.74 577.284 277.661C583.981 269.582 595.959 268.462 604.038 275.159Z" fill="black"/>
<path d="M1155.88 30.1255C1163.96 36.8221 1165.08 48.8 1158.38 56.8787C1151.68 64.9575 1139.71 66.0779 1131.63 59.3812C1123.55 52.6846 1122.43 40.7067 1129.13 32.628C1135.82 24.5492 1147.8 23.4288 1155.88 30.1255Z" fill="black"/>
<path d="M28 545C150.112 270.104 256.686 183.687 592 287.566" stroke="black" stroke-width="5"/>
<path d="M588 281C708.38 26.2628 813.442 -53.8164 1144 42.4447" stroke="black" stroke-width="5"/>
</svg>
