<?xml version="1.0" encoding="utf-8"?>
<svg viewBox="0 0 500 500" xmlns="http://www.w3.org/2000/svg">
  <g transform="matrix(1, 0, 0, 1, 19.668682, 5.944027)">
    <g transform="matrix(1.203764, 0, 0, 1.158727, -28.157429, -4.969817)" style="">
      <g>
        <path d="M 235.252 13.406 L 234.805 12.408 C 231.388 4.786 223.202 -0.446 215.128 0.033 L 214.828 0.049 L 214.526 0.033 C 214.194 0.011 213.856 0 213.524 0 C 205.818 0 198.138 5.104 194.85 12.413 L 194.398 13.411 L 13.662 176.079 C 6.791 182.262 7.167 188.736 8.691 193.078 C 11.352 200.637 19.052 206.451 27.004 206.898 L 28.596 207.195 C 29.276 207.363 29.952 207.543 30.691 207.622 C 53.727 210.003 76.21 210.498 95.163 210.664 L 100.317 210.712 L 100.317 407.93 C 100.317 418.953 107.538 423.082 111.839 424.565 L 112.806 424.895 L 113.576 425.566 C 116.681 428.283 120.596 429.659 125.22 429.659 L 304.435 429.659 C 309.061 429.659 312.976 428.283 316.074 425.566 L 316.845 424.895 L 317.81 424.565 C 322.117 423.083 329.342 418.954 329.342 407.93 L 329.342 210.706 L 334.491 210.658 C 353.452 210.488 375.937 209.992 398.966 207.616 C 399.697 207.537 400.373 207.362 401.048 207.194 L 402.652 206.892 C 410.604 206.445 418.302 200.63 420.964 193.072 C 422.492 188.736 422.863 182.261 415.992 176.074 L 235.252 13.406 Z" style="paint-order: stroke markers; fill-rule: evenodd;"/>
      </g>
    </g>
  </g>
  <g transform="matrix(1, 0, 0, 1, 97.799026, 41.789661)"/>
  <g transform="matrix(1, 0, 0, 1, 97.799026, 41.789661)"/>
  <g transform="matrix(1, 0, 0, 1, 97.799026, 41.789661)"/>
  <g transform="matrix(1, 0, 0, 1, 97.799026, 41.789661)"/>
  <g transform="matrix(1, 0, 0, 1, 97.799026, 41.789661)"/>
  <g transform="matrix(1, 0, 0, 1, 97.799026, 41.789661)"/>
  <g transform="matrix(1, 0, 0, 1, 97.799026, 41.789661)"/>
  <g transform="matrix(1, 0, 0, 1, 97.799026, 41.789661)"/>
  <g transform="matrix(1, 0, 0, 1, 97.799026, 41.789661)"/>
  <g transform="matrix(1, 0, 0, 1, 97.799026, 41.789661)"/>
  <g transform="matrix(1, 0, 0, 1, 97.799026, 41.789661)"/>
  <g transform="matrix(1, 0, 0, 1, 97.799026, 41.789661)"/>
  <g transform="matrix(1, 0, 0, 1, 97.799026, 41.789661)"/>
  <g transform="matrix(1, 0, 0, 1, 97.799026, 41.789661)"/>
  <g transform="matrix(1, 0, 0, 1, 97.799026, 41.789661)"/>
</svg>