<?xml version="1.0" encoding="UTF-8"?>
<svg xmlns="http://www.w3.org/2000/svg" xmlns:xlink="http://www.w3.org/1999/xlink" viewBox="0 0 50 50" width="50px" height="50px">
<g id="surface306949962">
<path style="fill-rule:nonzero;fill:rgb(0%,0%,0%);fill-opacity:1;stroke-width:1;stroke-linecap:butt;stroke-linejoin:round;stroke:rgb(80.000001%,80.000001%,80.000001%);stroke-opacity:1;stroke-miterlimit:10;" d="M 123.838592 13.756539 C 142.805204 13.756539 158.243458 29.194793 158.243458 48.161405 L 158.243458 123.838592 C 158.243458 142.805204 142.805204 158.243458 123.838592 158.243458 L 48.161405 158.243458 C 29.194793 158.243458 13.756539 142.805204 13.756539 123.838592 L 13.756539 48.161405 C 13.756539 29.194793 29.194793 13.756539 48.161405 13.756539 Z M 20.637512 48.161405 L 20.637512 123.838592 C 20.637512 139.087586 32.912411 151.362485 48.161405 151.362485 L 123.838592 151.362485 C 139.087586 151.362485 151.362485 139.087586 151.362485 123.838592 L 151.362485 48.161405 C 151.362485 32.912411 139.087586 20.637512 123.838592 20.637512 L 48.161405 20.637512 C 32.912411 20.637512 20.637512 32.912411 20.637512 48.161405 Z M 127.285838 51.595132 C 132.936617 51.595132 137.600538 56.259053 137.600538 61.923352 L 137.600538 110.076645 C 137.600538 115.740944 132.936617 120.404865 127.285838 120.404865 L 44.714159 120.404865 C 39.06338 120.404865 34.399459 115.740944 34.399459 110.076645 L 34.399459 61.923352 C 34.399459 56.259053 39.06338 51.595132 44.714159 51.595132 Z M 76.726231 89.068723 C 81.863303 94.192277 90.082619 94.192277 95.206173 89.068723 L 125.852865 58.476106 L 46.147132 58.476106 Z M 108.021817 85.999999 L 130.719565 108.657191 L 130.719565 63.342806 Z M 41.280432 108.657191 L 63.937625 85.999999 L 41.280432 63.342806 Z M 100.072873 93.935423 C 92.299671 101.695106 79.619214 101.681588 71.859531 93.921905 L 68.804325 90.866699 L 46.147132 113.523891 L 125.852865 113.523891 L 103.155116 90.85318 Z M 100.072873 93.935423 " transform="matrix(0.288953,0,0,0.288953,0.15,0.15)"/>
<path style=" stroke:none;fill-rule:nonzero;fill:rgb(0%,0%,0%);fill-opacity:1;" d="M 14.066406 4.125 C 8.585938 4.125 4.125 8.585938 4.125 14.066406 L 4.125 35.933594 C 4.125 41.414062 8.585938 45.875 14.066406 45.875 L 35.933594 45.875 C 41.414062 45.875 45.875 41.414062 45.875 35.933594 L 45.875 14.066406 C 45.875 8.585938 41.414062 4.125 35.933594 4.125 Z M 14.066406 6.113281 L 35.933594 6.113281 C 40.339844 6.113281 43.886719 9.660156 43.886719 14.066406 L 43.886719 35.933594 C 43.886719 40.339844 40.339844 43.886719 35.933594 43.886719 L 14.066406 43.886719 C 9.660156 43.886719 6.113281 40.339844 6.113281 35.933594 L 6.113281 14.066406 C 6.113281 9.660156 9.660156 6.113281 14.066406 6.113281 Z M 13.070312 15.058594 C 11.4375 15.058594 10.089844 16.40625 10.089844 18.042969 L 10.089844 31.957031 C 10.089844 33.59375 11.4375 34.941406 13.070312 34.941406 L 36.929688 34.941406 C 38.5625 34.941406 39.910156 33.59375 39.910156 31.957031 L 39.910156 18.042969 C 39.910156 16.40625 38.5625 15.058594 36.929688 15.058594 Z M 13.484375 17.046875 L 36.515625 17.046875 L 27.660156 25.886719 C 26.179688 27.367188 23.804688 27.367188 22.320312 25.886719 Z M 37.921875 18.453125 L 37.921875 31.546875 L 31.363281 25 Z M 12.078125 18.453125 L 18.625 25 L 12.078125 31.546875 Z M 29.957031 26.402344 L 36.515625 32.953125 L 13.484375 32.953125 L 20.03125 26.40625 L 20.914062 27.289062 C 23.15625 29.53125 26.820312 29.535156 29.066406 27.292969 Z M 29.957031 26.402344 "/>
</g>
</svg>
