<?xml version="1.0" encoding="UTF-8"?>
<!DOCTYPE svg PUBLIC "-//W3C//DTD SVG 1.1//EN" "http://www.w3.org/Graphics/SVG/1.1/DTD/svg11.dtd">
<!-- Creator: CorelDRAW 2019 (64-Bit) -->
<svg xmlns="http://www.w3.org/2000/svg" xml:space="preserve" width="841mm" height="1189mm" version="1.1" style="shape-rendering:geometricPrecision; text-rendering:geometricPrecision; image-rendering:optimizeQuality; fill-rule:evenodd; clip-rule:evenodd"
viewBox="0 0 84100 118900"
 xmlns:xlink="http://www.w3.org/1999/xlink"
 xmlns:xodm="http://www.corel.com/coreldraw/odm/2003">
 <defs>
  <style type="text/css">
   <![CDATA[
    .str0 {stroke:#FEFEFE;stroke-width:2000;stroke-miterlimit:22.9256}
    .fil3 {fill:none}
    .fil0 {fill:#FEFEFE}
    .fil1 {fill:url(#id0)}
    .fil2 {fill:url(#id1)}
    .fil4 {fill:url(#id2)}
   ]]>
  </style>
  <linearGradient id="id0" gradientUnits="userSpaceOnUse" x1="25864.22" y1="58264.41" x2="25577.63" y2="37000.4">
   <stop offset="0" style="stop-opacity:1; stop-color:#FF7202"/>
   <stop offset="1" style="stop-opacity:1; stop-color:#FFB20A"/>
  </linearGradient>
  <linearGradient id="id1" gradientUnits="userSpaceOnUse" x1="58474.22" y1="58413.08" x2="58523.37" y2="79678.97">
   <stop offset="0" style="stop-opacity:1; stop-color:#FF7803"/>
   <stop offset="1" style="stop-opacity:1; stop-color:#FFB80B"/>
  </linearGradient>
  <linearGradient id="id2" gradientUnits="userSpaceOnUse" x1="29137.16" y1="58097.98" x2="55247.41" y2="58097.98">
   <stop offset="0" style="stop-opacity:1; stop-color:#FF6400"/>
   <stop offset="1" style="stop-opacity:1; stop-color:#FFC10C"/>
  </linearGradient>
 </defs>
 <g id="Слой_x0020_1">
  <metadata id="CorelCorpID_0Corel-Layer"/>
  <path class="fil0" d="M42252.59 29033.48c330.31,835.13 3068.04,7715.5 3259.07,7774.96 4469.1,1389.5 4626.54,1330.05 8768.09,3621.3 819.17,453.08 1502.91,1071.86 2249.41,1639.44 1310.23,-727.78 2620.46,-1456.12 3930.7,-2183.9l-1947.73 3986.85c1230.95,1862.4 2164.08,3106.02 2726.16,4410.74 792.19,1837.63 1453.36,3464.41 1914.15,5522.24 95.24,427.76 151.39,866.52 220.75,1301.43 -605.56,24.22 -1199.02,50.09 -1805.69,55.6 -1476.49,-4598.47 -1709.91,-6819.81 -5370.85,-10420.75 -2845.08,-2797.73 -6884.77,-5152.29 -10882.63,-5630.69 -836.79,-100.19 -1652.1,-139.83 -2493.29,-166.25l-713.47 -6.06 145.33 -9904.91z"/>
  <path class="fil1" d="M12799.12 58295.14c830.61,-341.53 7673.45,-3171.73 7730.33,-3363.54 1329.15,-4487.42 1267.58,-4644.06 3502.81,-8816.1 442,-825.2 1051.51,-1517.22 1608.98,-2271.3 -745.37,-1300.31 -1491.3,-2600.61 -2236.67,-3900.91l4012.73 1893.83c1845.64,-1255.95 3076.57,-2205.75 4373.61,-2785.36 1826.78,-816.89 3444.5,-1499.92 5495.94,-1988.39 426.43,-101 864.39,-163.06 1298.33,-238.28 32.38,605.19 66.25,1198.24 79.93,1804.78 -4578.16,1538.33 -6796.15,1801.66 -10347.42,5510.8 -2759.13,2882.52 -5059.04,6953.58 -5483.52,10957.52 -88.91,838.06 -117.56,1653.84 -132.64,2495.31l3.56 713.48 -9905.97 -11.84z"/>
  <path class="fil2" d="M71538.85 58528.22c-834.37,332.24 -7708.39,3085.86 -7767.41,3277.03 -1379.17,4472.3 -1319.35,4629.61 -3601.02,8776.44 -451.19,820.21 -1068.39,1505.38 -1634.24,2253.2 730.81,1308.54 1462.17,2617.09 2192.98,3925.63l-3991.34 -1938.51c-1859.55,1235.26 -3101.01,2171.26 -4404.43,2736.35 -1835.79,796.44 -3461.04,1461.37 -5517.8,1926.91 -427.53,96.23 -866.17,153.39 -1300.91,223.76 -25.62,-605.51 -52.87,-1198.9 -59.78,-1805.56 4593.61,-918.97 6815.36,-1697.59 10408.31,-5394.92 2780.66,-2861.97 5136.36,-6896.66 5605.52,-10895.61 98.26,-837.02 136.01,-1652.43 160.49,-2493.67l4.41 -713.49 9905.22 122.44z"/>
  <path class="fil0" d="M41890.2 87969.68c-329.59,-835.42 -3061.41,-7718.13 -3252.38,-7777.75 -4467.91,-1393.35 -4625.41,-1334.02 -8764.98,-3628.83 -818.78,-453.78 -1502,-1073.15 -2248.01,-1641.37 -1310.86,726.65 -2621.71,1453.86 -3932.57,2180.52l1951.15 -3985.17c-1229.35,-1863.46 -2161.41,-3107.88 -2722.37,-4413.09 -790.62,-1838.3 -1450.39,-3465.65 -1909.41,-5523.88 -94.87,-427.83 -150.65,-866.64 -219.64,-1301.61 605.59,-23.7 1199.07,-49.07 1805.75,-54.05 1472.54,4599.74 1704.05,6821.27 5361.9,10425.35 2842.67,2800.17 6880.34,5158.2 10877.79,5640.03 836.7,100.92 1651.98,141.25 2493.15,168.4l713.46 6.67 -153.84 9904.78z"/>
  <path class="fil3 str0" d="M41997.15 41064.48c9412.19,0 17041.82,7711.74 17041.82,17224.33 0,9512.58 -7629.63,17224.31 -17041.82,17224.31 -9412.19,0 -17041.82,-7711.73 -17041.82,-17224.31 0,-9512.59 7629.63,-17224.33 17041.82,-17224.33z"/>
  <path class="fil4" d="M40391.6 44978.8c1568.59,4910.27 -458.98,7561.74 -2053.62,10932.59l-1106.14 3085.8c-437.45,-1188.42 96.52,-4214.51 458.29,-6094.18 -2858.05,1597.76 -4561.7,6363.95 -4424.56,10610.05 -462.8,-506.2 -1577.97,-4177.71 -1666.15,-4172.84 -1633.87,96.17 -1442.22,43.05 -2722.65,48.95 61.45,5830.67 5486.61,11124.93 11002.03,11827.99l-264.55 -416.63c-37.15,-55.89 -90.62,-136.79 -131.59,-197.2 -1128.36,-1677.61 -1482.14,-2732.02 -182.62,-5007.83l556.89 2259.49 2036.26 -4758.2c851.3,1649.48 1891.82,2653.55 2272.69,5149.48 251.36,-570.77 337.81,-912.75 529.46,-1457.14 976.29,1392.91 1423.47,1733.85 1138.77,4053.41 4582.19,-984.27 9255.33,-5961.21 9508.09,-11412.4l-2510.87 -22.57c-413.15,1629 -473.56,2388.3 -1687.33,3673.94 -283.65,-2290.4 -1432.15,-5615.07 -2866.73,-7489.88l-624.24 -678.06c303.44,3320.16 628.06,3083.72 -662.78,5818.17 -158.67,-4021.12 -405.86,-5934.48 -1936.96,-9252.55 -959.28,-2078.61 -3389.25,-5608.82 -4661.69,-6500.39z"/>
  <path class="fil0" d="M42135.1 45389.11c292.39,464 1588.28,2592.5 1703.88,2598.05 4563.18,222.43 9002.36,5108.24 9115.99,9653.35 3.58,143.87 1964.42,-22.9 2242.85,-50.99l117.03 -11.82c-824.03,-6930.04 -5627.35,-12278.95 -12913.31,-12203.26l-266.44 14.67z"/>
  <path class="fil0" d="M39642.09 45902.14c156.57,875.02 334.97,1628.9 466.68,2505.53 -4482.67,1090.11 -7121.34,3951.03 -8329.55,8747.2 -63.34,251.77 -96.45,511.59 -144.05,767.12 -754.23,40.26 -1546.23,44.02 -2304.94,62.81 -192.54,4.65 -385.08,9.48 -577.62,14.13 1124.29,-6030.32 4355.97,-10123.96 10243.86,-12189.31 209.72,-73.54 389.01,-111.83 604.28,-167.84l41.34 260.36z"/>
 </g>
</svg>
